HIERARCHY
ROOT joint_0
{
	OFFSET -212.520721 120.562408 434.227997
	CHANNELS 6 Xposition Yposition Zposition Zrotation Yrotation Xrotation 
	JOINT joint_1
	{
		OFFSET -0.259635 -29.370764 -7.040390
		CHANNELS 3 Zrotation Yrotation Xrotation
		JOINT joint_2
		{
			OFFSET 0.103584 1.856229 10.547143
			CHANNELS 3 Zrotation Yrotation Xrotation
			JOINT joint_3
			{
				OFFSET 43.438629 -0.000027 -0.000008
				CHANNELS 3 Zrotation Yrotation Xrotation
				JOINT joint_4
				{
					OFFSET 42.290081 0.000007 -0.000009
					CHANNELS 3 Zrotation Yrotation Xrotation
					JOINT joint_5
					{
						OFFSET 17.317598 -0.000002 -0.000001
						CHANNELS 3 Zrotation Yrotation Xrotation
						End Site
						{
							OFFSET 0.000000 0.000000 0.000000
						}
					}
				}
			}
		}
		JOINT joint_6
		{
			OFFSET 0.103606 1.856078 -10.547150
			CHANNELS 3 Zrotation Yrotation Xrotation
			JOINT joint_7
			{
				OFFSET 43.450745 -0.000024 0.000009
				CHANNELS 3 Zrotation Yrotation Xrotation
				JOINT joint_8
				{
					OFFSET 42.296028 0.000008 0.000009
					CHANNELS 3 Zrotation Yrotation Xrotation
					JOINT joint_9
					{
						OFFSET 17.320156 -0.000002 0.000002
						CHANNELS 3 Zrotation Yrotation Xrotation
						End Site
						{
							OFFSET 0.000000 0.000000 0.000000
						}
					}
				}
			}
		}
		JOINT joint_10
		{
			OFFSET 6.902067 -2.607064 -0.000000
			CHANNELS 3 Zrotation Yrotation Xrotation
			JOINT joint_11
			{
				OFFSET 12.585402 0.000006 0.000001
				CHANNELS 3 Zrotation Yrotation Xrotation
				JOINT joint_12
				{
					OFFSET 12.328373 -0.000004 -0.000000
					CHANNELS 3 Zrotation Yrotation Xrotation
					JOINT joint_13
					{
						OFFSET 25.816742 -0.000002 -0.000001
						CHANNELS 3 Zrotation Yrotation Xrotation
						JOINT joint_14
						{
							OFFSET 11.746256 0.000001 -0.000000
							CHANNELS 3 Zrotation Yrotation Xrotation
							End Site
							{
								OFFSET 0.000000 0.000000 0.000000
							}
						}
					}
					JOINT joint_15
					{
						OFFSET 19.732920 -1.479941 6.001546
						CHANNELS 3 Zrotation Yrotation Xrotation
						JOINT joint_16
						{
							OFFSET 11.302776 -0.000014 -0.000002
							CHANNELS 3 Zrotation Yrotation Xrotation
							JOINT joint_17
							{
								OFFSET 32.960747 0.000012 0.000011
								CHANNELS 3 Zrotation Yrotation Xrotation
								JOINT joint_18
								{
									OFFSET 25.215895 0.000080 -0.000198
									CHANNELS 3 Zrotation Yrotation Xrotation
									End Site
									{
										OFFSET 0.000000 0.000000 0.000000
									}
								}
							}
						}
					}
					JOINT joint_19
					{
						OFFSET 19.728712 -1.479918 -6.001591
						CHANNELS 3 Zrotation Yrotation Xrotation
						JOINT joint_20
						{
							OFFSET 11.302378 -0.000012 0.000005
							CHANNELS 3 Zrotation Yrotation Xrotation
							JOINT joint_21
							{
								OFFSET 32.942463 0.000015 -0.000008
								CHANNELS 3 Zrotation Yrotation Xrotation
								JOINT joint_22
								{
									OFFSET 25.213564 0.000080 0.000206
									CHANNELS 3 Zrotation Yrotation Xrotation
									End Site
									{
										OFFSET 0.000000 0.000000 0.000000
									}
								}
							}
						}
					}
				}
			}
		}
	}
}
MOTION
Frames: 6
Frame Time: 0.016667
-290.799255 72.627777 1269.140625 0.000000 -52.679794 0.000000 89.286926 -4.912892 93.118507 168.374741 -1.684613 148.530426 -1.319596 3.435243 -82.783340 -9.080667 -1.747949 83.241402 0.000007 0.003099 21.473181 -169.822296 5.638900 155.045044 0.742813 -3.626534 -61.428867 6.564852 -2.687083 85.587090 -0.000011 -0.003107 21.465059 0.291955 -0.244830 7.103740 1.605055 -0.340463 7.175807 1.143220 0.371140 8.310858 -0.670104 0.434378 12.238151 2.991074 1.887287 -11.123319 5.889570 -75.803360 172.902069 22.487055 52.845615 -6.848778 1.386285 -9.853891 -44.402882 23.848063 -5.408461 10.951004 0.972574 76.442711 179.787750 -21.211063 -43.852051 -9.994448 0.078798 15.589211 -50.972313 -18.033092 12.657330 1.458020 
-292.884888 72.575607 1270.122681 0.000000 -52.767365 0.000000 89.098778 -4.731362 93.181908 167.981384 -1.673227 149.488358 -2.831244 3.424240 -95.680763 -9.548016 -1.375061 82.756607 0.000006 0.003099 21.473845 -169.843735 5.355201 154.273834 0.463850 -3.935194 -61.287979 7.103501 -2.950619 85.434433 -0.000011 -0.003107 21.465105 0.336600 -0.286648 7.250700 1.583991 -0.561561 6.919197 0.993276 0.542633 8.413625 0.166977 -0.099876 12.592554 3.640105 2.393928 -10.125571 4.962872 -75.634789 173.878708 23.727978 53.368118 -5.684000 1.337464 -9.609429 -44.679726 22.671259 -5.381332 11.203520 2.054477 76.825539 -179.134750 -20.158285 -43.234219 -11.256833 -0.273009 15.225911 -52.799145 -17.277771 13.065548 1.776339 
-295.044861 72.529160 1271.094238 0.000000 -52.815704 0.000000 89.157349 -4.948900 93.335129 167.465149 -1.675170 149.817123 -3.049815 3.436635 -95.771400 -9.563052 -1.121487 82.559982 0.000006 0.003099 21.474756 -169.627945 5.529829 154.114441 0.491990 -4.099324 -61.537262 7.347227 -3.062154 85.449310 -0.000012 -0.003106 21.465702 0.366386 -0.272610 7.337183 1.554095 -0.578985 6.704496 1.038785 0.714065 8.475654 0.583848 -0.506004 12.759987 4.001302 2.637806 -9.771522 3.779693 -75.571533 175.121567 24.346226 53.827671 -5.271513 1.395340 -9.270182 -44.591152 22.234457 -5.070147 11.317833 2.711958 77.097885 -178.472183 -19.166101 -43.045074 -12.181859 -0.610338 15.065272 -53.590221 -16.816645 13.242266 1.812332 
-297.224274 72.487732 1272.019531 0.000000 -52.863903 0.000000 89.333946 -5.042047 93.576851 167.255219 -1.884714 149.154022 -3.045374 3.379779 -95.212975 -9.389133 -1.015470 82.948631 0.000006 0.003099 21.476017 -169.273560 5.922510 154.578094 0.624153 -4.179131 -62.145504 7.296859 -3.024348 85.811821 -0.000012 -0.003106 21.466993 0.407954 -0.189642 7.334281 1.471851 -0.447806 6.599794 1.154724 0.826313 8.460224 0.373237 -0.778900 12.738890 4.019882 2.619665 -10.085279 2.911119 -75.644958 176.045105 24.606800 54.050575 -4.907991 1.477251 -9.056030 -44.321297 22.172197 -4.607574 11.401376 2.982877 77.238632 -178.198868 -18.552441 -42.924252 -12.525440 -0.934841 15.141362 -53.787331 -16.909575 13.321173 1.709569 
-299.373627 72.436623 1272.873291 0.000000 -52.916840 0.000000 89.483932 -4.696623 93.681557 167.557465 -2.250196 148.050430 -2.036086 3.514176 -85.050171 -9.139500 -1.074408 83.447487 0.000005 0.003098 21.477022 -169.153946 6.181956 155.309402 0.758484 -4.199992 -62.778587 6.934812 -3.046908 86.441513 -0.000012 -0.003106 21.468676 0.466561 -0.100761 7.304217 1.347537 -0.322138 6.589688 1.291867 0.928779 8.366997 0.164269 -0.982875 12.758183 3.806190 2.570511 -10.319632 2.154675 -75.717476 176.852280 24.853222 54.359505 -3.992040 1.533165 -8.912250 -44.167896 22.287455 -4.291142 11.414416 3.353233 77.342995 -177.816681 -17.827848 -42.638699 -13.489115 -1.293552 15.294330 -54.179394 -17.298103 13.425823 1.702536 
-301.510223 72.374603 1273.702637 0.000000 -52.954571 0.000000 89.610542 -4.074396 93.535652 168.039825 -2.551012 146.828354 -1.721266 3.424394 -84.680656 -8.768266 -1.229224 83.898239 0.000005 0.003098 21.477491 -169.060791 6.313732 156.454193 0.750864 -4.137310 -63.671566 6.498163 -3.064492 87.203033 -0.000012 -0.003106 21.470589 0.510020 -0.016335 7.255732 1.247073 -0.182455 6.708964 1.376109 1.045800 8.149468 0.034511 -1.218886 12.629190 3.309286 2.643569 -10.176952 1.333696 -75.701454 177.715881 25.276808 54.578972 -2.835951 1.474970 -8.732225 -43.745586 22.477367 -3.836765 11.547259 3.964937 77.439735 -177.195358 -17.316242 -42.159817 -14.476041 -1.564587 15.380902 -54.747257 -17.699728 13.518167 1.806323 
